<?xml version="1.0" encoding="UTF-8" standalone="no"?>
<svg
   xmlns:dc="http://purl.org/dc/elements/1.1/"
   xmlns:cc="http://creativecommons.org/ns#"
   xmlns:rdf="http://www.w3.org/1999/02/22-rdf-syntax-ns#"
   xmlns:svg="http://www.w3.org/2000/svg"
   xmlns="http://www.w3.org/2000/svg"
   xmlns:sodipodi="http://sodipodi.sourceforge.net/DTD/sodipodi-0.dtd"
   xmlns:inkscape="http://www.inkscape.org/namespaces/inkscape"
   width="136"
   height="136"
   viewBox="0 0 35.983333 35.983334"
   id="svg2"
   version="1.1"
   inkscape:version="1.0.2 (e86c870879, 2021-01-15)"
   sodipodi:docname="busywidget.svgz">
  <defs
     id="defs4">
    <style
       type="text/css"
       id="current-color-scheme">
      .ColorScheme-Text {
        color:#31363b;
        stop-color:#31363b;
      }
      .ColorScheme-Background {
        color:#eff0f1;
        stop-color:#eff0f1;
      }
      .ColorScheme-Highlight {
        color:#3daee9;
        stop-color:#3daee9;
      }
      .ColorScheme-ViewText {
        color:#31363b;
        stop-color:#31363b;
      }
      .ColorScheme-ViewBackground {
        color:#fcfcfc;
        stop-color:#fcfcfc;
      }
      .ColorScheme-ViewHover {
        color:#93cee9;
        stop-color:#93cee9;
      }
      .ColorScheme-ViewFocus{
        color:#3daee9;
        stop-color:#3daee9;
      }
      .ColorScheme-ButtonText {
        color:#31363b;
        stop-color:#31363b;
      }
      .ColorScheme-ButtonBackground {
        color:#eff0f1;
        stop-color:#eff0f1;
      }
      .ColorScheme-ButtonHover {
        color:#93cee9;
        stop-color:#93cee9;
      }
      .ColorScheme-ButtonFocus{
        color:#3daee9;
        stop-color:#3daee9;
      }
      </style>
  </defs>
  <sodipodi:namedview
     id="base"
     pagecolor="#cccccc"
     bordercolor="#c90303"
     borderopacity="1"
     inkscape:pageopacity="0"
     inkscape:pageshadow="2"
     inkscape:zoom="1.9315454"
     inkscape:cx="-56.301712"
     inkscape:cy="46.050241"
     inkscape:document-units="px"
     inkscape:current-layer="layer1"
     showgrid="true"
     units="px"
     inkscape:showpageshadow="false"
     borderlayer="true"
     inkscape:window-width="1032"
     inkscape:window-height="806"
     inkscape:window-x="1848"
     inkscape:window-y="139"
     inkscape:window-maximized="0"
     fit-margin-top="0"
     fit-margin-left="0"
     fit-margin-right="0"
     fit-margin-bottom="0"
     inkscape:document-rotation="0">
    <inkscape:grid
       type="xygrid"
       id="grid4160"
       empspacing="2"
       originx="0"
       originy="0"
       visible="true"
       enabled="true"
       snapvisiblegridlinesonly="true"
       spacingx="1"
       spacingy="1" />
    <sodipodi:guide
       position="-5.8455811e-08,35.983344"
       orientation="136.00001,0"
       id="guide4155" />
    <sodipodi:guide
       position="-5.8455811e-08,6.6152344e-06"
       orientation="0,136"
       id="guide4157" />
    <sodipodi:guide
       position="35.983333,6.6152344e-06"
       orientation="-136.00001,0"
       id="guide4159" />
    <sodipodi:guide
       position="35.983333,35.983344"
       orientation="0,-136"
       id="guide4161" />
    <sodipodi:guide
       position="1.1488343e-09,17.991675"
       orientation="68.000007,0"
       id="guide4165" />
    <sodipodi:guide
       position="1.1488343e-09,6.6152344e-06"
       orientation="0,67.999998"
       id="guide4167" />
    <sodipodi:guide
       position="17.991666,6.6152344e-06"
       orientation="-68.000007,0"
       id="guide4169" />
    <sodipodi:guide
       position="17.991666,17.991675"
       orientation="0,-67.999998"
       id="guide4171" />
    <sodipodi:guide
       position="1.8520831,34.131232"
       orientation="122.00003,0"
       id="guide4199" />
    <sodipodi:guide
       position="1.8520831,1.8520574"
       orientation="0,121.99999"
       id="guide4201" />
    <sodipodi:guide
       position="34.131248,1.8520574"
       orientation="-122.00003,0"
       id="guide4203" />
    <sodipodi:guide
       position="34.131248,34.131232"
       orientation="0,-121.99999"
       id="guide4205" />
  </sodipodi:namedview>
  <metadata
     id="metadata7">
    <rdf:RDF>
      <cc:Work
         rdf:about="">
        <dc:format>image/svg+xml</dc:format>
        <dc:type
           rdf:resource="http://purl.org/dc/dcmitype/StillImage" />
        <dc:title></dc:title>
      </cc:Work>
    </rdf:RDF>
  </metadata>
  <g
     inkscape:label="Capa 1"
     inkscape:groupmode="layer"
     id="layer1"
     transform="translate(0.52916664,-249.37498)">
    <g
       id="stopped">
      <rect
         style="opacity:1;fill:none;fill-opacity:1;stroke:none;stroke-width:0.02645833;stroke-linecap:square;stroke-linejoin:miter;stroke-miterlimit:4;stroke-dasharray:none;stroke-dashoffset:0;stroke-opacity:1"
         id="rect4234"
         width="35.983334"
         height="35.983334"
         x="-42.862503"
         y="249.37497" />
      <ellipse
         ry="1.3229166"
         rx="1.322917"
         cy="38.364582"
         cx="267.36664"
         id="ellipse4238"
         style="opacity:0.9;fill:#da4453;fill-opacity:1;stroke:none;stroke-width:0.01322917;stroke-linecap:square;stroke-linejoin:miter;stroke-miterlimit:4;stroke-dasharray:none;stroke-dashoffset:0;stroke-opacity:1"
         transform="rotate(90)" />
      <ellipse
         transform="rotate(90)"
         style="opacity:0.9;fill:#da4453;fill-opacity:1;stroke:none;stroke-width:0.01058334;stroke-linecap:square;stroke-linejoin:miter;stroke-miterlimit:4;stroke-dasharray:none;stroke-dashoffset:0;stroke-opacity:1"
         id="ellipse4261"
         cx="267.36664"
         cy="11.377067"
         rx="1.0583339"
         ry="1.0583336" />
      <ellipse
         ry="2.1166663"
         rx="2.116667"
         cy="24.870825"
         cx="267.36664"
         id="ellipse4263"
         style="opacity:0.9;fill:#da4453;fill-opacity:1;stroke:none;stroke-width:0.02116666;stroke-linecap:square;stroke-linejoin:miter;stroke-miterlimit:4;stroke-dasharray:none;stroke-dashoffset:0;stroke-opacity:1"
         transform="rotate(90)" />
    </g>
    <rect
       style="fill:#0000ff;fill-opacity:1;fill-rule:nonzero;stroke:none;stroke-width:0.26458335"
       id="hint-rotation-angle"
       width="3.7041671"
       height="3.7041693"
       x="-0.52916706"
       y="285.35831" />
    <g
       id="busywidget"
       transform="translate(-36.777084,0)">
      <rect
         style="fill:none;stroke:none"
         id="rect3016"
         width="35.983334"
         height="35.983334"
         x="36.247917"
         y="249.37498" />
      <path
         inkscape:connector-curvature="0"
         class="ColorScheme-Highlight"
         id="path3018"
         transform="matrix(0.26458334,0,0,0.26458334,-0.52916714,249.37498)"
         d="m 207,7 a 60.999998,61.000013 0 0 0 -61,61 60.999998,61.000013 0 0 0 52.5,60.34375 60.999998,61.000013 0 0 0 0.0625,0 60.999998,61.000013 0 0 0 0.125,0.0313 60.999998,61.000013 0 0 0 3.46875,0.40625 60.999998,61.000013 0 0 0 1.34375,0.0937 60.999998,61.000013 0 0 0 0.0313,0 c 0.15685,0.009 0.31182,0.0232 0.46875,0.0313 A 60.999998,61.000013 0 0 0 207,129 c 0.15564,-7.2e-4 0.31314,-0.0292 0.46875,-0.0313 a 60.999998,61.000013 0 0 0 4.1875,-0.21875 c 0.20839,-0.0188 0.41684,-0.0101 0.625,-0.0313 12.83843,-1.3057 25.21151,-7.11778 34.34375,-16.25 10.43684,-10.43683 16.49999,-25.115076 16.5,-39.875 0,-5.534972 -0.85031,-11.052726 -2.46875,-16.34375 A 54.99999,55.000005 0 0 1 262,68 54.99999,55.000005 0 0 1 207,123 54.99999,55.000002 0 0 1 152,68 54.99999,55.000002 0 0 1 154.46875,51.75 54.99999,55.000002 0 0 1 207,13 l 1,0 c 1.10799,0 2,-0.892032 2,-2 l 0,-2 c 0,-1.1079685 -0.89201,-2 -2,-2 l -1,0 z"
         style="fill:#eff0f1;fill-opacity:1;stroke:none" />
    </g>
    <path
       style="fill:#ff0000;stroke-width:0.51772"
       d=""
       id="path872"
       transform="matrix(0.26458333,0,0,0.26458333,-0.52916664,249.37498)" />
    <path
       style="fill:#aa0000;stroke-width:0.51772"
       d="M 60.703045,128.29256 C 40.810769,125.75705 22.864978,113.17365 14.003158,95.547079 9.1804364,85.95446 7.4420942,78.658416 7.4525529,68.053348 7.4604193,60.076813 8.0131426,56.405856 10.258802,49.415422 13.128652,40.481963 17.416551,33.277012 23.941601,26.424227 34.990883,14.819973 48.323425,8.5390686 64.288847,7.4168109 c 5.639226,-0.3963982 6.509741,-0.035734 6.509741,2.6970551 0,2.211244 -1.070464,2.802284 -5.07535,2.802284 -6.66734,0 -15.55631,2.289097 -22.622679,5.825815 -11.210826,5.61102 -21.404472,16.609972 -26.109935,28.172643 -4.861256,11.9455 -5.446633,26.428178 -1.539553,38.089737 5.443275,16.246675 18.011565,29.194855 33.824124,34.846475 20.505214,7.32885 43.089601,2.15198 58.063135,-13.30944 9.68331,-9.998803 14.85023,-21.702074 15.7351,-35.640571 0.33974,-5.351653 0.39328,-5.587267 0.52939,-2.329741 0.47014,11.251633 -1.06844,19.267375 -5.46556,28.474609 -8.26963,17.315993 -25.441144,29.315783 -44.792063,31.301553 -5.916952,0.6072 -7.503282,0.60034 -12.642152,-0.0547 z"
       id="path874"
       transform="matrix(0.26458333,0,0,0.26458333,-0.52916664,249.37498)" />
  </g>
</svg>
